<svg width="72" height="48" viewBox="0 0 72 48" fill="none" xmlns="http://www.w3.org/2000/svg">
<path d="M11.922 31.7939C8.28132 29.9736 1 24.5457 1 17.3968C1 8.46059 9.43972 2.50314 15.8936 2.50314C22.3475 2.50314 26.8156 6.97123 29.2979 10.4464C27.8085 9.12253 23.4397 6.47477 17.8794 6.47477C10.9291 6.47477 5.46809 11.9358 5.46809 18.3897C5.46809 23.5528 9.77068 29.4771 11.922 31.7939Z" fill="black"/>
<path d="M65.0426 29.3117C67.0284 27.6568 71 22.8578 71 16.9003C71 9.4535 65.0426 1.01378 55.1135 1.01378C52.3002 0.848296 44.4894 2.10598 35.7518 8.46059C24.8298 16.4039 21.3546 17.3968 20.3617 18.3897C23.0095 18.0587 29.3972 16.7017 33.766 13.9216C39.2269 10.4464 47.6667 5.97832 55.6099 5.97832C59.747 6.30929 68.0213 9.65208 68.0213 20.3755C68.0213 24.3471 66.0355 27.9878 65.0426 29.3117Z" fill="black"/>
<path fill-rule="evenodd" clip-rule="evenodd" d="M58.0922 20.8719C58.0922 19.5481 57.3972 16.9003 54.617 16.9003C54.617 15.3117 52.3002 14.5835 51.1418 14.418C45.9787 14.418 43.0331 23.6852 42.2057 28.3187L20.3617 43.7088H18.3759L17.383 28.3187L13.9078 26.8294V47.6804H20.3617L44.6879 30.801C49.6525 30.6355 59.5816 29.0138 59.5816 23.8507C59.5816 22.8578 59.2837 20.8719 58.0922 20.8719ZM55.1135 18.3897C54.3192 18.3897 54.4515 19.0516 54.617 19.3826C54.4515 19.5481 54.2199 19.9783 54.617 20.3755C55.0142 20.7726 55.7754 20.21 56.1064 19.879C56.1064 19.3826 55.9078 18.3897 55.1135 18.3897ZM49.156 26.3329C49.6525 25.1745 51.539 22.6592 55.1135 21.8648C54.7163 23.8507 50.9764 25.671 49.156 26.3329ZM51.1418 15.9074C48.3617 15.9074 46.3428 20.8719 45.6809 23.3542C46.8723 22.1627 50.8109 18.5552 52.6312 16.9003C52.6312 16.106 51.6383 15.9074 51.1418 15.9074ZM47.6667 24.3471C48.3286 23.0232 50.2482 20.0776 52.6312 18.8861C52.234 21.6663 49.156 23.6852 47.6667 24.3471ZM58.0922 23.8507C58.0922 26.6308 52.4657 27.9878 49.6525 28.3187C50.3144 27.9878 52.8298 26.3329 57.5957 22.3613C57.9929 22.3613 58.0922 23.3542 58.0922 23.8507Z" fill="black"/>
<path d="M29.2979 47.6804L33.766 45.1982L57.0993 43.7088L57.5957 32.2904L60.5745 29.8081V47.6804H29.2979Z" fill="black"/>
<path d="M11.922 31.7939C8.28132 29.9736 1 24.5457 1 17.3968C1 8.46059 9.43972 2.50314 15.8936 2.50314C22.3475 2.50314 26.8156 6.97123 29.2979 10.4464C27.8085 9.12253 23.4397 6.47477 17.8794 6.47477C10.9291 6.47477 5.46809 11.9358 5.46809 18.3897C5.46809 23.5528 9.77068 29.4771 11.922 31.7939Z" stroke="black" stroke-width="0.5" stroke-linecap="round"/>
<path d="M65.0426 29.3117C67.0284 27.6568 71 22.8578 71 16.9003C71 9.4535 65.0426 1.01378 55.1135 1.01378C52.3002 0.848296 44.4894 2.10598 35.7518 8.46059C24.8298 16.4039 21.3546 17.3968 20.3617 18.3897C23.0095 18.0587 29.3972 16.7017 33.766 13.9216C39.2269 10.4464 47.6667 5.97832 55.6099 5.97832C59.747 6.30929 68.0213 9.65208 68.0213 20.3755C68.0213 24.3471 66.0355 27.9878 65.0426 29.3117Z" stroke="black" stroke-width="0.5" stroke-linecap="round"/>
<path fill-rule="evenodd" clip-rule="evenodd" d="M58.0922 20.8719C58.0922 19.5481 57.3972 16.9003 54.617 16.9003C54.617 15.3117 52.3002 14.5835 51.1418 14.418C45.9787 14.418 43.0331 23.6852 42.2057 28.3187L20.3617 43.7088H18.3759L17.383 28.3187L13.9078 26.8294V47.6804H20.3617L44.6879 30.801C49.6525 30.6355 59.5816 29.0138 59.5816 23.8507C59.5816 22.8578 59.2837 20.8719 58.0922 20.8719ZM55.1135 18.3897C54.3192 18.3897 54.4515 19.0516 54.617 19.3826C54.4515 19.5481 54.2199 19.9783 54.617 20.3755C55.0142 20.7726 55.7754 20.21 56.1064 19.879C56.1064 19.3826 55.9078 18.3897 55.1135 18.3897ZM49.156 26.3329C49.6525 25.1745 51.539 22.6592 55.1135 21.8648C54.7163 23.8507 50.9764 25.671 49.156 26.3329ZM51.1418 15.9074C48.3617 15.9074 46.3428 20.8719 45.6809 23.3542C46.8723 22.1627 50.8109 18.5552 52.6312 16.9003C52.6312 16.106 51.6383 15.9074 51.1418 15.9074ZM47.6667 24.3471C48.3286 23.0232 50.2482 20.0776 52.6312 18.8861C52.234 21.6663 49.156 23.6852 47.6667 24.3471ZM58.0922 23.8507C58.0922 26.6308 52.4657 27.9878 49.6525 28.3187C50.3144 27.9878 52.8298 26.3329 57.5957 22.3613C57.9929 22.3613 58.0922 23.3542 58.0922 23.8507Z" stroke="black" stroke-width="0.5" stroke-linecap="round"/>
<path d="M29.2979 47.6804L33.766 45.1982L57.0993 43.7088L57.5957 32.2904L60.5745 29.8081V47.6804H29.2979Z" stroke="black" stroke-width="0.5" stroke-linecap="round"/>
</svg>
